<svg xmlns="http://www.w3.org/2000/svg" style="display: none;">
    <!-- 微信图标 -->
    <symbol id="wechat" viewBox="0 0 300 300">
        <path fill="#2DC100" d="M300 255c0 24.854-20.147 45-45 45H45c-24.854 0-45-20.146-45-45V45C0 20.147 20.147 0 45 0h210c24.853 0 45 20.147 45 45v210z"/>
        <g fill="#FFF">
            <path d="M200.803 111.88c-24.213 1.265-45.268 8.605-62.362 25.188-17.271 16.754-25.155 37.284-23 62.734-9.464-1.172-18.084-2.462-26.753-3.192-2.994-.252-6.547.106-9.083 1.537-8.418 4.75-16.488 10.113-26.053 16.092 1.755-7.938 2.891-14.889 4.902-21.575 1.479-4.914.794-7.649-3.733-10.849-29.066-20.521-41.318-51.232-32.149-82.85 8.483-29.25 29.315-46.989 57.621-56.236 38.635-12.62 82.054.253 105.547 30.927 8.485 11.08 13.688 23.516 15.063 38.224zm-111.437-9.852c.223-5.783-4.788-10.993-10.74-11.167-6.094-.179-11.106 4.478-11.284 10.483-.18 6.086 4.475 10.963 10.613 11.119 6.085.154 11.186-4.509 11.411-10.435zm58.141-11.171c-5.974.11-11.022 5.198-10.916 11.004.109 6.018 5.061 10.726 11.204 10.652 6.159-.074 10.83-4.832 10.772-10.977-.051-6.032-4.981-10.79-11.06-10.679z"/>
            <path d="M255.201 262.83c-7.667-3.414-14.7-8.536-22.188-9.318-7.459-.779-15.3 3.524-23.104 4.322-23.771 2.432-45.067-4.193-62.627-20.432-33.397-30.89-28.625-78.254 10.014-103.568 34.341-22.498 84.704-14.998 108.916 16.219 21.129 27.24 18.646 63.4-7.148 86.284-7.464 6.623-10.15 12.073-5.361 20.804.884 1.612.985 3.653 1.498 5.689zm-87.274-84.499c4.881.005 8.9-3.815 9.085-8.636.195-5.104-3.91-9.385-9.021-9.406-5.06-.023-9.299 4.318-9.123 9.346.166 4.804 4.213 8.69 9.059 8.696zm56.261-18.022c-4.736-.033-8.76 3.844-8.953 8.629-.205 5.117 3.772 9.319 8.836 9.332 4.898.016 8.768-3.688 8.946-8.562.19-5.129-3.789-9.364-8.829-9.399z"/>
        </g>
    </symbol>

    <!-- 小红书图标 -->
    <symbol id="xiaohongshu" viewBox="0 0 256 256">
        <path
                style="fill:#ff2842;stroke:none"
                d="M 29,0.33332825 C 13.959937,3.4666748 1.5356731,15.204498 0,31 -1.586103,47.314209 0,64.597672 0,81 v 102 c 0,18.76035 -4.7369685,44.19888 7.3333335,60 C 20.372129,260.06897 44.156731,256 63,256 h 111 35 c 5.78276,0 12.33244,0.84741 18,-0.33333 15.0401,-3.13336 27.46432,-14.87115 29,-30.66667 1.58612,-16.31419 0,-33.59769 0,-50 V 73 C 256,54.239685 260.73697,28.801102 248.66667,13 235.62787,-4.0689697 211.84329,0 193,0 H 82 47 C 41.217228,0 34.667561,-0.84741211 29,0.33332825 M 120,91 l -7,19 h 12 l -10,24 9,1 c -0.98794,2.68155 -2.31718,7.73317 -4.33334,9.83334 C 118.18945,146.3721 115.92654,146 114,146 c -4.35942,0 -13.16798,1.80539 -15.5,-3 -1.069664,-2.20416 0.465553,-4.98451 1.333336,-7 1.813624,-4.21228 4.222554,-8.51549 5.166664,-13 -2.17548,0 -4.92464,0.42967 -7,-0.33333 -7.778526,-2.85974 0.874031,-15.36435 2.66666,-19.66667 1.25875,-3.020981 2.75652,-9.584732 5.5,-11.5 C 110.01874,88.810822 115.88325,90.674988 120,91 m -79,63 c 2.750713,0 6.837379,0.81721 8.5,-2 1.769028,-2.99753 0.5,-9.58963 0.5,-13 V 106 C 50,102.90659 48.438198,93.464493 51.166668,91.5 53.41069,89.884308 62.832935,90.226166 63.833332,93 65.47065,97.539825 64,105.16241 64,110 v 32 c 0,5.48389 0.949112,11.8645 -1.333332,17 -2.177158,4.89861 -12.303417,9.27243 -17.333336,5.5 C 43.120155,162.84012 41.545292,156.59013 41,154 M 193,91 v 5 c 3.72887,0 8.4108,-0.763367 12,0.333328 11.97635,3.659424 11,15.422502 11,25.666672 1.99706,0 4.04419,-0.15562 6,0.33333 11.49335,2.87334 10,14.36401 10,23.66667 0,4.95615 0.93086,10.82184 -2.33333,15 -3.59567,4.60246 -9.48195,4 -14.66667,4 -1.6116,0 -4.26318,0.51051 -5.66667,-0.5 -2.62326,-1.88875 -3.78159,-7.50485 -4.33333,-10.5 3.28711,0 9.2179,1.12517 11.83333,-1.33334 C 219.9164,149.76859 218.65411,138.43454 215,136.5 c -1.93661,-1.02527 -4.88672,-0.5 -7,-0.5 h -15 v 29 h -14 v -29 h -14 v -14 h 14 v -12 h -9 V 96 h 9 v -5 h 14 m -32,5 v 14 h -8 v 42 h 13 v 13 H 120 L 125.33334,152.5 138,152 v -42 h -8 V 96 h 31 m 57,14 c 0,-2.84204 -0.51608,-6.25871 0.33333,-9 3.34434,-10.793121 19.61577,-2.093994 11.5,6.83333 -0.92279,1.01507 -2.54419,1.51106 -3.83333,1.83334 C 223.43948,110.30679 220.61993,110 218,110 M 41,110 36.833332,147 30,159 24,143 27,110 h 14 m 46,0 3,33 -6,15 h -2 c -5.366936,-8.49765 -6.053299,-17.26251 -7,-27 -0.672195,-6.91406 -2,-14.04004 -2,-21 h 14 m 106,0 v 12 h 9 v -12 h -9 m -75,42 -5,13 H 91 L 96.333336,151.5 104,151.66666 Z"/>
    </symbol>

    <!-- YouTube 新图标 -->
    <symbol id="youtube" viewBox="0 0 24 24">
        <path d="M4.652 0h1.44l.988 3.702.916-3.702h1.454l-1.665 5.505v3.757h-1.431v-3.757l-1.702-5.505zm6.594 2.373c-1.119 0-1.861.74-1.861 1.835v3.349c0 1.204.629 1.831 1.861 1.831 1.022 0 1.826-.683 1.826-1.831v-3.349c0-1.069-.797-1.835-1.826-1.835zm.531 5.127c0 .372-.19.646-.532.646-.351 0-.554-.287-.554-.646v-3.179c0-.374.172-.651.529-.651.39 0 .557.269.557.651v3.179zm4.729-5.07v5.186c-.155.194-.5.512-.747.512-.271 0-.338-.186-.338-.46v-5.238h-1.27v5.71c0 .675.206 1.22.887 1.22.384 0 .918-.2 1.468-.853v.754h1.27v-6.831h-1.27zm2.203 13.858c-.448 0-.541.315-.541.763v.659h1.069v-.66c.001-.44-.092-.762-.528-.762zm-4.703.04c-.084.043-.167.109-.25.198v4.055c.099.106.194.182.287.229.197.1.485.107.619-.067.07-.092.105-.241.105-.449v-3.359c0-.22-.043-.386-.129-.5-.147-.193-.42-.214-.632-.107zm4.827-5.195c-2.604-.177-11.066-.177-13.666 0-2.814.192-3.146 1.892-3.167 6.367.021 4.467.35 6.175 3.167 6.367 2.6.177 11.062.177 13.666 0 2.814-.192 3.146-1.893 3.167-6.367-.021-4.467-.35-6.175-3.167-6.367zm-12.324 10.686h-1.363v-7.54h-1.41v-1.28h4.182v1.28h-1.41v7.54zm4.846 0h-1.21v-.718c-.223.265-.455.467-.696.605-.652.374-1.547.365-1.547-.955v-5.438h1.209v4.988c0 .262.063.438.322.438.236 0 .564-.303.711-.487v-4.939h1.21v6.506zm4.657-1.348c0 .805-.301 1.431-1.106 1.431-.443 0-.812-.162-1.149-.583v.5h-1.221v-8.82h1.221v2.84c.273-.333.644-.608 1.076-.608.886 0 1.18.749 1.18 1.631v3.609zm4.471-1.752h-2.314v1.228c0 .488.042.91.528.91.511 0 .541-.344.541-.91v-.452h1.245v.489c0 1.253-.538 2.013-1.813 2.013-1.155 0-1.746-.842-1.746-2.013v-2.921c0-1.129.746-1.914 1.837-1.914 1.161 0 1.721.738 1.721 1.914v1.656z"/>
    </symbol>
</svg>